PathFileType	4	(X/Y/Z)	/Users/mathieubourgeois/Desktop/Analyse/Traitement/Sujet_05/Data/Transformed_Sujet_05_velo_80.trc
DataRate	CameraRate	NumFrames	NumMarkers	Units	OrigDataRate	OrigDataStartFrame	OrigNumFrames
120.000000	120.000000	5	36	mm	120.000000	741	1976
Frame#	Time	RFHD			RANE			STRN			LANI			LKNE			T10			RHUM			RWRB			C7			LFWT			LTOE			RTOE			LWRA			LBWT			RBWT			RFWT			LKNI			RKNI			RKNE			LANE			RANI			LHEE			RHEE			LHUM			LRAD			RRAD			RWRA			LWRB			LFHD			LBHD			RBHD			RSHO			LSHO			CLAV			LCAR			RCAR			
		X1	Y1	Z1	X2	Y2	Z2	X3	Y3	Z3	X4	Y4	Z4	X5	Y5	Z5	X6	Y6	Z6	X7	Y7	Z7	X8	Y8	Z8	X9	Y9	Z9	X10	Y10	Z10	X11	Y11	Z11	X12	Y12	Z12	X13	Y13	Z13	X14	Y14	Z14	X15	Y15	Z15	X16	Y16	Z16	X17	Y17	Z17	X18	Y18	Z18	X19	Y19	Z19	X20	Y20	Z20	X21	Y21	Z21	X22	Y22	Z22	X23	Y23	Z23	X24	Y24	Z24	X25	Y25	Z25	X26	Y26	Z26	X27	Y27	Z27	X28	Y28	Z28	X29	Y29	Z29	X30	Y30	Z30	X31	Y31	Z31	X32	Y32	Z32	X33	Y33	Z33	X34	Y34	Z34	X35	Y35	Z35	X36	Y36	Z36	

742	6.175	139.4820861816406	1370.404052734375	112.6866760253906	-373.1117553710938	494.4382934570312	190.8171234130859	-210.2690582275391	1148.817138671875	26.40690040588369	-105.6850357055664	367.8085327148438	-61.87998962402347	-107.3365859985351	762.3287963867188	-140.3445281982422	-332.0691528320312	1353.564208984375	38.58611297607409	21.26401329040525	1031.115600585938	195.0833129882812	241.0057678222656	891.49072265625	246.7603302001953	-105.670783996582	1417.274536132812	27.67721176147451	-364.4133911132812	1074.234375	-86.93347167968761	49.58786773681642	278.0658264160156	-90.31494140625001	-290.8441162109375	310.9091186523438	155.6034698486328	272.0823059082031	932.71337890625	-149.8775482177735	-537.5469970703125	1102.633666992188	-20.59551048278822	-528.1898803710938	1111.680541992188	115.9926452636717	-363.6318969726562	1072.162353515625	160.5284271240233	-103.4749755859375	726.556640625	-35.28182601928717	-111.0190963745117	731.7064819335938	113.2636947631835	-107.1117553710938	770.419921875	219.227310180664	-134.2928466796875	372.3157958984375	-141.2773742675782	-346.9307861328125	478.5219116210938	109.5336532592773	-186.4100341796875	332.2089233398438	-100.5245895385743	-435.2578430175781	511.8408813476562	145.9354400634765	14.44685554504396	1040.670532226562	-151.476303100586	63.1514587402344	1071.04296875	-193.5935668945313	60.45609664916989	1063.9267578125	247.3153381347656	273.4400329589844	934.1678466796875	193.9940643310547	237.8173065185547	882.7588500976562	-183.0329742431641	155.7012329101562	1365.005004882812	-33.42941284179694	31.38567352294923	1452.068969726562	-56.30956268310555	9.820824623107901	1481.059326171875	75.09804534912101	-36.12519836425783	1321.819702148438	176.2851409912109	-70.48006439208983	1327.562255859375	-127.575164794922	-92.44774627685547	1274.577026367188	29.73765754699698	315.0702514648438	924.9772338867188	-227.182846069336	318.7463378906249	930.0096435546875	282.9262084960938	
743	6.183333333333334	139.6483306884766	1370.768188476562	114.2889328002929	-369.1925964355469	506.3804931640625	190.8669433593749	-209.6635437011719	1149.120239257812	26.96954345703115	-107.7609405517578	357.5993347167969	-63.26823043823246	-114.3404769897461	751.4515380859375	-139.2604675292969	-331.6830749511719	1353.734252929688	38.51493835449206	21.31038284301755	1031.178955078125	195.3180541992187	241.0516815185547	891.4966430664062	246.713882446289	-105.2096710205078	1417.538330078125	28.76127243041982	-363.6806945800781	1073.662963867188	-87.50753784179699	45.42712402343751	265.8928833007812	-90.29224395751955	-286.8580017089844	323.0110473632812	155.7146301269531	272.2792358398438	932.5368041992188	-149.8341522216797	-536.8848266601562	1102.546752929688	-21.68033981323256	-527.91748046875	1112.0166015625	114.8593292236327	-363.5794677734375	1072.712768554688	158.9666748046874	-111.2913970947266	715.2273559570312	-34.89629364013678	-104.9744720458985	741.2169189453125	114.1778717041015	-101.5740432739258	779.734130859375	220.1495819091796	-138.2627868652343	361.3059387207031	-141.6153106689454	-343.0051879882812	490.474853515625	109.5945434570312	-190.3523101806641	320.7777099609375	-100.7270965576172	-431.4525756835938	523.66845703125	146.2505493164062	14.91971492767336	1041.086181640625	-151.8629150390626	63.69918441772463	1071.294189453125	-193.4155883789063	60.39983749389646	1063.80078125	247.7208251953124	273.4521789550781	934.2313842773438	193.989028930664	237.9971923828125	882.6781005859375	-183.0761108398438	156.2590637207031	1365.54541015625	-31.77271652221686	31.92300033569337	1452.517700195312	-54.90874862670907	9.951283454895011	1481.360473632812	76.49675750732413	-36.3200263977051	1321.745361328125	177.5867462158202	-69.59449768066405	1327.92724609375	-126.6473312377931	-92.11337280273438	1274.941162109375	30.64043998718253	315.2251281738281	924.9531860351562	-227.182373046875	318.8140869140624	929.9971313476562	282.8818664550781	
744	6.191666666666666	139.8673553466797	1371.132690429688	115.8787994384765	-365.0266723632812	517.6242065429688	190.9136199951171	-209.2781372070312	1149.383422851562	27.59788703918447	-114.4812316894531	345.2218933105469	-62.15483474731449	-121.7312240600586	741.0299072265625	-138.2562103271485	-331.2555541992188	1353.866821289062	38.45804977416979	21.39593505859373	1031.28466796875	195.5936889648437	241.1075439453125	891.514892578125	246.7171478271484	-104.6892852783203	1417.830078125	29.83617210388174	-362.9628601074219	1073.05419921875	-88.01776123046886	40.41635513305665	253.9221649169922	-90.23777008056642	-281.8810729980469	334.9281311035156	155.8961181640624	272.5294189453125	932.3814697265625	-149.7879791259766	-536.1238403320312	1102.501831054688	-22.69480895996107	-527.5896606445312	1112.35546875	113.7938003540038	-363.592529296875	1073.201416015625	158.2315673828124	-116.7341232299805	705.5557250976562	-34.4192733764649	-99.00047302246095	750.9619140625	115.0324478149413	-96.23752593994143	789.4061279296875	221.0948638916015	-143.5318298339843	350.2690124511719	-141.5900268554688	-338.8093872070312	502.081787109375	109.5040206909179	-195.0502166748047	310.0758972167969	-100.9373397827149	-427.2574768066406	535.0426025390625	146.2478942871093	15.35738849639894	1041.345581054688	-151.8779602050782	64.32875061035159	1071.593017578125	-193.2058258056641	60.42602920532224	1063.724243164062	248.1769866943359	273.48388671875	934.2864990234375	194.0184936523437	238.1923980712891	882.6017456054688	-183.1179656982422	156.8721923828125	1366.0419921875	-30.12520980834968	32.56426620483399	1453.010620117188	-53.54961776733407	10.19471263885497	1481.662841796875	77.87648773193351	-36.36868286132815	1321.718017578125	178.9019775390624	-68.72350311279295	1328.296875	-125.6449127197267	-91.72769165039062	1275.350463867188	31.5499725341796	315.4019470214844	924.935791015625	-227.1720275878907	318.9006652832031	929.945068359375	282.8649291992188	
745	6.2	140.1202850341797	1371.467651367188	117.4567794799804	-360.2687377929688	528.8223266601562	190.7927703857421	-208.5056610107422	1149.696899414062	28.15541076660147	-119.9529037475586	334.6250305175781	-62.28275680541996	-129.4362030029297	731.0701904296875	-137.3773498535157	-330.7738342285156	1354.012573242188	38.39896392822253	21.52961540222165	1031.43017578125	195.9552764892578	241.1937255859375	891.5162353515625	246.7445220947265	-104.1810531616211	1418.149291992188	30.92289924621572	-362.1512756347656	1072.467529296875	-88.50064086914074	34.56879043579103	242.164794921875	-90.2968215942383	-275.7181701660156	346.8241577148438	156.1337127685546	272.8346862792969	932.25244140625	-149.7279052734375	-535.3204345703125	1102.464477539062	-23.63236427307142	-527.2117919921875	1112.725708007812	112.82413482666	-363.6640930175781	1073.63232421875	157.6946868896483	-124.9937896728516	694.7562866210938	-33.86811065673834	-92.87610626220705	760.0882568359375	115.3889083862304	-91.00766754150393	799.2731323242188	221.9864959716796	-149.1578063964843	339.6669006347656	-141.5337066650391	-334.7131042480469	513.3587036132812	109.055549621582	-200.4138641357422	300.0015258789062	-100.7876052856446	-422.6595153808594	545.80029296875	146.0912475585937	15.94802284240724	1041.693725585938	-151.8137207031251	65.00781250000003	1071.999877929688	-192.9637908935547	60.49951171874997	1063.721069335938	248.6416473388671	273.5230407714844	934.3286743164062	194.0979309082031	238.3916931152344	882.5505981445312	-183.1302032470703	157.5412902832031	1366.55029296875	-28.50215721130378	33.21188354492188	1453.492065429688	-52.12989425659188	10.51485538482665	1481.992797851562	79.22320556640616	-36.38380050659182	1321.754150390625	180.1525115966796	-67.84979248046874	1328.734252929688	-124.6340408325196	-91.22708129882812	1275.782470703125	32.45941543579092	315.6036987304688	924.9224243164062	-227.1155090332032	319.0118713378906	929.8892822265625	282.9112243652344	
746	6.208333333333333	140.4241638183593	1371.779052734375	118.9793319702148	-355.0772399902344	539.5352783203125	190.6368560791015	-207.715087890625	1149.99560546875	28.80916404724112	-125.9143295288086	324.7627563476562	-62.24653625488285	-137.4055023193359	721.663330078125	-136.6299133300782	-330.2572326660156	1354.124145507812	38.423126220703	21.72049903869626	1031.594482421875	196.4082489013671	241.2886810302734	891.4976196289062	246.8442077636718	-103.6293792724609	1418.464111328125	31.98095893859853	-361.3171997070312	1071.857299804688	-88.88797760009777	28.01583290100099	230.7000579833984	-90.26794433593751	-268.6499633789062	358.4763488769531	156.2988128662109	273.1756591796875	932.1399536132812	-149.6168365478516	-534.4915771484375	1102.4482421875	-24.47995758056654	-526.7289428710938	1113.071899414062	111.8961791992186	-363.7359924316406	1073.886474609375	157.0082855224608	-133.1483612060547	685.3184204101562	-33.7239494323731	-85.25742340087892	771.0667114257812	116.1455078124999	-86.08572387695315	809.388671875	222.9755096435546	-155.4997253417968	330.019287109375	-141.3378295898438	-327.5236206054688	524.0504150390625	109.6892395019531	-206.6491851806641	290.9057312011719	-100.893783569336	-417.6959228515625	556.0452270507812	145.6388397216796	16.50565147399904	1042.15869140625	-151.7136840820313	65.68458557128909	1072.462768554688	-192.7149353027344	60.63217163085935	1063.756225585938	249.1870117187499	273.5806884765625	934.3716430664062	194.2262268066406	238.5971069335938	882.5209350585938	-183.1053466796875	158.1929016113281	1367.043212890625	-26.91664886474616	33.91019439697266	1453.95361328125	-50.79351806640634	10.83209323883056	1482.306640625	80.57534027099601	-36.32967376708987	1321.862060546875	181.3960876464843	-66.94495391845702	1329.326171875	-123.5936203002931	-90.69875335693359	1276.257446289062	33.3636589050292	315.8427124023438	924.9318237304688	-227.0037384033203	319.1505737304687	929.8239135742188	282.9999389648438	
